<svg width="1440" height="988" viewBox="0 0 1440 988" fill="none" xmlns="http://www.w3.org/2000/svg">
<g filter="url(#filter0_f_0_1)">
<rect x="639.531" y="520.054" width="523.673" height="193.908" transform="rotate(149.307 639.531 520.054)" fill="url(#paint0_linear_0_1)" fill-opacity="0.45"/>
</g>
<g filter="url(#filter1_f_0_1)">
<rect x="697.866" y="352.745" width="523.673" height="193.908" transform="rotate(149.307 697.866 352.745)" fill="url(#paint1_linear_0_1)" fill-opacity="0.45"/>
</g>
<g filter="url(#filter2_f_0_1)">
<rect x="1198.72" y="578.156" width="362.64" height="152.14" transform="rotate(-107.65 1198.72 578.156)" fill="url(#paint2_linear_0_1)" fill-opacity="0.45"/>
</g>
<path d="M408.711 596.774H412.526V586.789H408.711V596.774ZM408.711 612.37H412.526V602.385H408.711V612.37ZM408.711 627.966H412.526V617.981H408.711V627.966ZM408.711 643.562H412.526V633.577H408.711V643.562ZM408.711 659.157H412.526V649.173H408.711V659.157ZM408.711 674.753H412.526V664.769H408.711V674.753ZM410.847 692.814L406.484 680.803H401.884L408.62 696.647H411.833L410.847 692.814ZM414.589 680.803L410.099 692.832L409.241 696.647H412.435L419.171 680.803H414.589Z" fill="#FA00FF"/>
<circle cx="1017.5" cy="302.5" r="5.5" fill="#1C25FF" fill-opacity="0.25"/>
<circle cx="1017.5" cy="336.5" r="5.5" fill="#1C25FF" fill-opacity="0.25"/>
<circle cx="1017.5" cy="404.5" r="5.5" fill="#1C25FF" fill-opacity="0.25"/>
<circle cx="1017.5" cy="370.5" r="5.5" fill="#1C25FF" fill-opacity="0.25"/>
<circle cx="1065.5" cy="302.5" r="5.5" fill="#1C25FF" fill-opacity="0.25"/>
<circle cx="1065.5" cy="336.5" r="5.5" fill="#1C25FF" fill-opacity="0.25"/>
<circle cx="1065.5" cy="404.5" r="5.5" fill="#1C25FF" fill-opacity="0.25"/>
<circle cx="1065.5" cy="370.5" r="5.5" fill="#1C25FF" fill-opacity="0.25"/>
<circle cx="1113.5" cy="302.5" r="5.5" fill="#1C25FF" fill-opacity="0.25"/>
<circle cx="1113.5" cy="336.5" r="5.5" fill="#1C25FF" fill-opacity="0.25"/>
<circle cx="1113.5" cy="404.5" r="5.5" fill="#1C25FF" fill-opacity="0.25"/>
<circle cx="1113.5" cy="370.5" r="5.5" fill="#1C25FF" fill-opacity="0.25"/>
<circle cx="1161.5" cy="302.5" r="5.5" fill="#1C25FF" fill-opacity="0.25"/>
<circle cx="1161.5" cy="336.5" r="5.5" fill="#1C25FF" fill-opacity="0.25"/>
<circle cx="1161.5" cy="404.5" r="5.5" fill="#1C25FF" fill-opacity="0.25"/>
<circle cx="1161.5" cy="370.5" r="5.5" fill="#1C25FF" fill-opacity="0.25"/>
<circle cx="1209.5" cy="302.5" r="5.5" fill="#1C25FF" fill-opacity="0.25"/>
<circle cx="1209.5" cy="336.5" r="5.5" fill="#1C25FF" fill-opacity="0.25"/>
<circle cx="1209.5" cy="404.5" r="5.5" fill="#1C25FF" fill-opacity="0.25"/>
<circle cx="1209.5" cy="370.5" r="5.5" fill="#1C25FF" fill-opacity="0.25"/>
<circle cx="1256.5" cy="302.5" r="5.5" fill="#1C25FF" fill-opacity="0.25"/>
<circle cx="1256.5" cy="336.5" r="5.5" fill="#1C25FF" fill-opacity="0.25"/>
<circle cx="1256.5" cy="404.5" r="5.5" fill="#1C25FF" fill-opacity="0.25"/>
<circle cx="1256.5" cy="370.5" r="5.5" fill="#1C25FF" fill-opacity="0.25"/>
<circle cx="1174.45" cy="708.92" r="5.5" transform="rotate(90.2237 1174.45 708.92)" fill="#1C25FF" fill-opacity="0.25"/>
<circle cx="1140.45" cy="708.787" r="5.5" transform="rotate(90.2237 1140.45 708.787)" fill="#1C25FF" fill-opacity="0.25"/>
<circle cx="1072.45" cy="708.521" r="5.5" transform="rotate(90.2237 1072.45 708.521)" fill="#1C25FF" fill-opacity="0.25"/>
<circle cx="1106.45" cy="708.654" r="5.5" transform="rotate(90.2237 1106.45 708.654)" fill="#1C25FF" fill-opacity="0.25"/>
<circle cx="1174.27" cy="756.919" r="5.5" transform="rotate(90.2237 1174.27 756.919)" fill="#1C25FF" fill-opacity="0.25"/>
<circle cx="1140.27" cy="756.786" r="5.5" transform="rotate(90.2237 1140.27 756.786)" fill="#1C25FF" fill-opacity="0.25"/>
<circle cx="1072.27" cy="756.521" r="5.5" transform="rotate(90.2237 1072.27 756.521)" fill="#1C25FF" fill-opacity="0.25"/>
<circle cx="1106.27" cy="756.654" r="5.5" transform="rotate(90.2237 1106.27 756.654)" fill="#1C25FF" fill-opacity="0.25"/>
<circle cx="1174.08" cy="804.919" r="5.5" transform="rotate(90.2237 1174.08 804.919)" fill="#1C25FF" fill-opacity="0.25"/>
<circle cx="1140.08" cy="804.786" r="5.5" transform="rotate(90.2237 1140.08 804.786)" fill="#1C25FF" fill-opacity="0.25"/>
<circle cx="1072.08" cy="804.521" r="5.5" transform="rotate(90.2237 1072.08 804.521)" fill="#1C25FF" fill-opacity="0.25"/>
<circle cx="1106.08" cy="804.653" r="5.5" transform="rotate(90.2237 1106.08 804.653)" fill="#1C25FF" fill-opacity="0.25"/>
<circle cx="1173.89" cy="852.919" r="5.5" transform="rotate(90.2237 1173.89 852.919)" fill="#1C25FF" fill-opacity="0.25"/>
<circle cx="1139.89" cy="852.786" r="5.5" transform="rotate(90.2237 1139.89 852.786)" fill="#1C25FF" fill-opacity="0.25"/>
<circle cx="1071.89" cy="852.52" r="5.5" transform="rotate(90.2237 1071.89 852.52)" fill="#1C25FF" fill-opacity="0.25"/>
<circle cx="1105.89" cy="852.653" r="5.5" transform="rotate(90.2237 1105.89 852.653)" fill="#1C25FF" fill-opacity="0.25"/>
<circle cx="1173.7" cy="900.918" r="5.5" transform="rotate(90.2237 1173.7 900.918)" fill="#1C25FF" fill-opacity="0.25"/>
<circle cx="1139.7" cy="900.785" r="5.5" transform="rotate(90.2237 1139.7 900.785)" fill="#1C25FF" fill-opacity="0.25"/>
<circle cx="1071.7" cy="900.52" r="5.5" transform="rotate(90.2237 1071.7 900.52)" fill="#1C25FF" fill-opacity="0.25"/>
<circle cx="1105.7" cy="900.653" r="5.5" transform="rotate(90.2237 1105.7 900.653)" fill="#1C25FF" fill-opacity="0.25"/>
<circle cx="1173.52" cy="947.918" r="5.5" transform="rotate(90.2237 1173.52 947.918)" fill="#1C25FF" fill-opacity="0.25"/>
<circle cx="1139.52" cy="947.785" r="5.5" transform="rotate(90.2237 1139.52 947.785)" fill="#1C25FF" fill-opacity="0.25"/>
<circle cx="1071.52" cy="947.52" r="5.5" transform="rotate(90.2237 1071.52 947.52)" fill="#1C25FF" fill-opacity="0.25"/>
<circle cx="1105.52" cy="947.652" r="5.5" transform="rotate(90.2237 1105.52 947.652)" fill="#1C25FF" fill-opacity="0.25"/>
<circle cx="309.5" cy="476.5" r="5.5" fill="#1C25FF" fill-opacity="0.25"/>
<defs>
<filter id="filter0_f_0_1" x="-109.762" y="153.309" width="949.293" height="834.046" filterUnits="userSpaceOnUse" color-interpolation-filters="sRGB">
<feFlood flood-opacity="0" result="BackgroundImageFix"/>
<feBlend mode="normal" in="SourceGraphic" in2="BackgroundImageFix" result="shape"/>
<feGaussianBlur stdDeviation="100" result="effect1_foregroundBlur_0_1"/>
</filter>
<filter id="filter1_f_0_1" x="-51.427" y="-14" width="949.293" height="834.046" filterUnits="userSpaceOnUse" color-interpolation-filters="sRGB">
<feFlood flood-opacity="0" result="BackgroundImageFix"/>
<feBlend mode="normal" in="SourceGraphic" in2="BackgroundImageFix" result="shape"/>
<feGaussianBlur stdDeviation="100" result="effect1_foregroundBlur_0_1"/>
</filter>
<filter id="filter2_f_0_1" x="888.769" y="-13.5427" width="654.934" height="791.699" filterUnits="userSpaceOnUse" color-interpolation-filters="sRGB">
<feFlood flood-opacity="0" result="BackgroundImageFix"/>
<feBlend mode="normal" in="SourceGraphic" in2="BackgroundImageFix" result="shape"/>
<feGaussianBlur stdDeviation="100" result="effect1_foregroundBlur_0_1"/>
</filter>
<linearGradient id="paint0_linear_0_1" x1="1163.2" y1="625.578" x2="678.273" y2="610.419" gradientUnits="userSpaceOnUse">
<stop stop-color="#0368FF" stop-opacity="0.46"/>
<stop offset="0.371" stop-color="#7437F6" stop-opacity="0.759"/>
<stop offset="1" stop-color="#F68DFF" stop-opacity="0"/>
</linearGradient>
<linearGradient id="paint1_linear_0_1" x1="1221.54" y1="458.27" x2="736.607" y2="443.11" gradientUnits="userSpaceOnUse">
<stop stop-color="#F5C974" stop-opacity="0.58"/>
<stop offset="0.225" stop-color="#F237F6" stop-opacity="0.759"/>
<stop offset="0.2251" stop-color="#F6B537" stop-opacity="0.759"/>
<stop offset="0.475" stop-color="#F237F6" stop-opacity="0.759"/>
<stop offset="1" stop-color="#F68DFF" stop-opacity="0"/>
</linearGradient>
<linearGradient id="paint2_linear_0_1" x1="1561.36" y1="660.951" x2="1225.48" y2="651.683" gradientUnits="userSpaceOnUse">
<stop stop-color="#F5C974" stop-opacity="0.58"/>
<stop offset="0.225" stop-color="#F237F6" stop-opacity="0.759"/>
<stop offset="0.2251" stop-color="#F6B537" stop-opacity="0.759"/>
<stop offset="0.475" stop-color="#0368FF" stop-opacity="0.46"/>
<stop offset="1" stop-color="#F68DFF" stop-opacity="0"/>
</linearGradient>
</defs>
</svg>
